<svg id="Layer_1" enable-background="new 0 0 467 467" height="512" viewBox="0 0 467 467" width="512" xmlns="http://www.w3.org/2000/svg"><path d="m354.502 449h-22c-4.418 0-8-3.582-8-8s3.582-8 8-8h22c44.112 0 80-35.888 80-80v-50.333c0-4.418 3.582-8 8-8s8 3.582 8 8v50.333c0 52.935-43.066 96-96 96z" fill="#4d4e59"/><path d="m347.502 198v124c0 13.25 10.75 24 24 24h16c13.25 0 24-10.75 24-24v-7h30c13.25 0 24-10.75 24-24v-62c0-13.25-10.75-24-24-24h-30v-7c0-13.25-10.75-24-24-24h-16c-13.25 0-24 10.75-24 24z" fill="#d6f4fc"/><circle cx="306.502" cy="441" fill="#42434d" r="26"/><path d="m381.502 182c-4.418 0-8-3.582-8-8v-18c0-77.196-62.804-140-140-140-77.364 0-140 62.599-140 140v18c0 4.418-3.582 8-8 8s-8-3.582-8-8v-18c0-86.208 69.753-156 156-156 86.019 0 156 69.981 156 156v18c0 4.418-3.582 8-8 8z" fill="#4d4e59"/><g fill="#bdeffc"><path d="m233.502 321.17c-32.974 0-62.45-22.107-71.68-53.761-1.237-4.241 1.199-8.683 5.44-9.919 4.244-1.239 8.683 1.199 9.92 5.44 7.252 24.87 30.412 42.239 56.32 42.239s49.068-17.369 56.32-42.239c1.237-4.242 5.678-6.681 9.92-5.44 4.241 1.236 6.677 5.678 5.44 9.919-9.231 31.654-38.706 53.761-71.68 53.761z"/><path d="m198.672 205.17c0 8.73-7.11 15.83-15.84 15.83s-15.83-7.1-15.83-15.83 7.1-15.84 15.83-15.84 15.84 7.11 15.84 15.84z"/><path d="m299.502 205.17c0 8.45-6.88 15.33-15.33 15.33-8.46 0-15.34-6.88-15.34-15.33 0-8.46 6.88-15.34 15.34-15.34 8.45 0 15.33 6.88 15.33 15.34z"/></g><path d="m411.502 322c0 13.25-10.75 24-24 24h-16c-13.25 0-24-10.75-24-24v-124c0-13.25 10.75-24 24-24h16c13.25 0 24 10.75 24 24z" fill="#fe4f60"/><path d="m119.502 198v124c0 13.25-10.75 24-24 24h-16c-13.25 0-24-10.75-24-24v-7h-30c-13.25 0-24-10.75-24-24v-62c0-13.25 10.75-24 24-24h30v-7c0-13.25 10.75-24 24-24h16c13.25 0 24 10.75 24 24z" fill="#d6f4fc"/><path d="m119.502 198v124c0 13.25-10.75 24-24 24h-16c-13.25 0-24-10.75-24-24 0-6.821 0-119.752 0-124 0-13.25 10.75-24 24-24h16c13.25 0 24 10.75 24 24z" fill="#fe4f60"/><path d="m118.765 192.076c1.433 5.643-2.447 11.141-8.043 11.848-14.517 1.832-25.221 14.516-25.221 29.148v89.028c0 19.502-30 20.604-30-.099v-124.001c0-13.255 10.745-24 24-24h16c11.211 0 20.626 7.686 23.264 18.076z" fill="#ff6d7a"/><path d="m410.984 192.076c1.433 5.643-2.447 11.141-8.043 11.848-14.517 1.832-25.221 14.516-25.221 29.148v89.028c0 19.502-30 20.604-30-.099v-124.001c0-13.255 10.745-24 24-24h16c11.211 0 20.626 7.686 23.264 18.076z" fill="#ff6d7a"/><path d="m55.502 205v20h-10c-13.255 0-24 10.75-24 24.004 0 19.568-.01 33.094-.014 42.5-.006 12.806-19.282 13.561-19.952.773-.053-.997-.034-64.27-.034-63.277 0-13.255 10.745-24 24-24z" fill="#e8f8fc"/><path d="m411.502 205h20v110h-20z" fill="#bdeffc"/></svg>