<svg id="Layer_3" height="512" viewBox="0 0 64 64" width="512" xmlns="http://www.w3.org/2000/svg" data-name="Layer 3"><path d="m32 8-23 14.48v39.52h46v-39.52z" fill="#c7e2fb"/><path d="m9 22.48v35.44c.83 0 1.66.08 2.5.08 21.26 0 38.5-15.89 38.5-35.5a32.25 32.25 0 0 0 -.17-3.27l-17.83-11.23z" fill="#ebf7fe"/><path d="m21 42a1 1 0 0 1 -.83-.45l-2-3 1.66-1.1 1.17 1.75 1.17-1.75 1.66 1.1-2 3a1 1 0 0 1 -.83.45z" fill="#c1c8d1"/><path d="m62 21-30-19-30 19 3 4 27-17 27 17z" fill="#4472b0"/><path d="m32 8-1 .63v9.37h2v-9.37z" fill="#88929f"/><path d="m35 41h4v4h-4z" fill="#88929f"/><g fill="#cda57d"><path d="m17 45h30v4h-30z"/><path d="m19 49h4v13h-4z"/><path d="m41 49h4v13h-4z"/></g><path d="m31 33h12v8h-12z" fill="#c1c8d1"/><path d="m19 41h4v4h-4z" fill="#4472b0"/><path d="m31 49h10v4h-10z" fill="#c18e5c"/><path d="m32 17a4 4 0 0 1 4 4 0 0 0 0 1 0 0h-8a0 0 0 0 1 0 0 4 4 0 0 1 4-4z" fill="#c1c8d1"/><path d="m30 21v1a2 2 0 0 0 2 2 2 2 0 0 0 2-2v-1z" fill="#f7d881"/></svg>