<svg id="Capa_1" enable-background="new 0 0 512 512" height="512" viewBox="0 0 512 512" width="512" xmlns="http://www.w3.org/2000/svg"><g><g><g><g><g><g><g><g><g><circle cx="256" cy="256" fill="#7584f2" r="256"/></g></g></g></g></g></g></g></g><path d="m501.494 328.821-199.177-199.59-57.064-23.47-53.657 7.284 55.521 55.521-55.521 3.386 126.887 126.887-1.529.366-173.782-173.782-33.882 167.758-37.26 64.647 152.433 152.248c10.334 1.27 20.859 1.924 31.537 1.924 116.086 0 214.125-77.268 245.494-183.179z" fill="#4855b7"/><g><path d="m148.842 293.181h-39.552l5.669-167.758h28.213z" fill="#e9edf5"/></g><g><path d="m288.497 238.853h-30c0-36.89-30.012-66.901-66.901-66.901v-30c53.431-.001 96.901 43.469 96.901 96.901z" fill="#ffce00"/></g><g><path d="m347.404 238.853h-30c0-33.604-13.086-65.198-36.849-88.96-23.762-23.762-55.354-36.848-88.959-36.848v-30c41.617 0 80.744 16.207 110.173 45.635 29.428 29.428 45.635 68.555 45.635 110.173z" fill="#ffce00"/></g><g><path d="m422.108 365.206h-332.216c-13.98 0-25.313-11.333-25.313-25.313v-52.345c0-13.98 11.333-25.313 25.313-25.313h332.215c13.98 0 25.313 11.333 25.313 25.313v52.345c.001 13.98-11.332 25.313-25.312 25.313z" fill="#fff"/></g><g><path d="m422.108 262.234h-165.987v102.972h165.987c13.98 0 25.313-11.333 25.313-25.313v-52.345c0-13.981-11.333-25.314-25.313-25.314z" fill="#e9edf5"/></g><g><circle cx="405.42" cy="294.368" fill="#fe6a16" r="13.187"/></g><g><circle cx="366.014" cy="294.368" fill="#fe6a16" r="13.187"/></g><g><circle cx="324.559" cy="294.368" fill="#fe6a16" r="13.187"/></g><g><path d="m188.132 279.023h24.434v69.394h-24.434z" fill="#e9edf5"/></g><g><path d="m142.521 279.023h24.434v69.394h-24.434z" fill="#e9edf5"/></g><g><path d="m97.073 279.023h24.434v69.394h-24.434z" fill="#e9edf5"/></g></g></svg>