<svg id="Layer_3" enable-background="new 0 0 64 64" height="512" viewBox="0 0 64 64" width="512" xmlns="http://www.w3.org/2000/svg"><g><path d="m17 2h4v28h-4z" fill="#d4d9f0"/><path d="m15 30h8v32h-8z" fill="#a9adcc"/><path d="m38 27h-8c-1.657 0-3-1.343-3-3v-12c0-1.657 1.343-3 3-3h8c1.657 0 3 1.343 3 3v12c0 1.657-1.343 3-3 3z" fill="#3279ea"/><path d="m30 27h8v4h-8z" fill="#7aadf9"/><g><path d="m33 31h2v4h-2z" fill="#a9adcc"/></g><path d="m32 35h4v4h-4z" fill="#3279ea"/><g><path d="m37 45c-2.206 0-4-1.794-4-4v-2h2v2c0 1.103.897 2 2 2s2-.897 2-2v-2c0-1.654 1.346-3 3-3s3 1.346 3 3v1c0 .552.448 1 1 1h1v2h-1c-1.654 0-3-1.346-3-3v-1c0-.552-.448-1-1-1s-1 .448-1 1v2c0 2.206-1.794 4-4 4z" fill="#a9adcc"/></g><path d="m48.293 1.293-2.707 2.707h-24.586v2h12v3h2v-3h11c.266 0 .52-.105.707-.293l3-3z" fill="#a9adcc"/><g fill="#d4d9f0"><path d="m1 61h62v2h-62z"/><path d="m33 22h2v-3h3v-2h-3v-3h-2v3h-3v2h3z"/></g></g></svg>