<svg viewBox="0 0 512 512" xmlns="http://www.w3.org/2000/svg"><path d="m31 15h30v301h-30zm0 0" fill="#fdbf00"/><path d="m312.398438 126.398438-56.398438 90.601562-86.398438 138.601562-25.5-15.902343 111.898438-179.699219 30.902344-49.5zm0 0" fill="#fdbf00"/><path d="m451 15h30v151h-30zm0 0" fill="#ff9f00"/><path d="m286.902344 110.5 25.496094 15.898438-56.398438 90.601562v-57zm0 0" fill="#ff9f00"/><path d="m376 61c-57.898438 0-105 47.101562-105 105s47.101562 105 105 105 105-47.101562 105-105-47.101562-105-105-105zm0 0" fill="#c6e2e7"/><path d="m481 166c0 57.898438-47.101562 105-105 105v-210c57.898438 0 105 47.101562 105 105zm0 0" fill="#a8d3d8"/><path d="m361 196h30v120h-30zm0 0" fill="#fdbf00"/><path d="m376 196h15v120h-15zm0 0" fill="#ff9f00"/><path d="m376 301c-24.902344 0-45 20.101562-45 45s20.097656 45 45 45 45-20.101562 45-45-20.097656-45-45-45zm0 60c-8.269531 0-15-6.730469-15-15s6.730469-15 15-15 15 6.730469 15 15-6.730469 15-15 15zm0 0" fill="#68544f"/><path d="m376 301v30c8.269531 0 15 6.730469 15 15s-6.730469 15-15 15v30c24.902344 0 45-20.101562 45-45s-20.097656-45-45-45zm0 0" fill="#53433f"/><path d="m481 512h-210l30-151h150zm0 0" fill="#725d57"/><path d="m481 512h-105v-151h75zm0 0" fill="#53433f"/><path d="m376 121c-24.902344 0-45 20.097656-45 45 0 24.898438 20.097656 45 45 45s45-20.101562 45-45c0-24.902344-20.097656-45-45-45zm0 0" fill="#a8d3d8"/><path d="m421 166c0 24.898438-20.097656 45-45 45v-90c24.902344 0 45 20.097656 45 45zm0 0" fill="#8ebac5"/><path d="m106 241c-41.398438 0-75 33.601562-75 75s33.601562 75 75 75c26.101562 0 49.800781-13.199219 63.601562-35.398438 7.5-12.003906 11.398438-25.503906 11.398438-39.601562 0-41.398438-33.601562-75-75-75zm0 0" fill="#c6e2e7"/><path d="m181 316c0 14.097656-3.898438 27.597656-11.398438 39.601562-13.800781 22.199219-37.5 35.398438-63.601562 35.398438v-150c41.398438 0 75 33.601562 75 75zm0 0" fill="#a8d3d8"/><path d="m91 301h30v30h-30zm0 0" fill="#a8d3d8"/><path d="m106 301h15v30h-15zm0 0" fill="#8ebac5"/><path d="m0 0h512v30h-512zm0 0" fill="#725d57"/><path d="m256 0h256v30h-256zm0 0" fill="#68544f"/></svg>