<svg id="Capa_1" enable-background="new 0 0 512 512" height="512" viewBox="0 0 512 512" width="512" xmlns="http://www.w3.org/2000/svg"><g><g><path d="m401.28 0h-348.917c-19.212 0-34.786 15.574-34.786 34.787v63.042c0 19.212 15.575 34.787 34.787 34.787h33.636l5.75 5.718h40.75l6.875-5.718h261.905c19.212 0 34.786-15.575 34.786-34.787v-63.042c0-19.213-15.574-34.787-34.786-34.787z" fill="#95d6a4"/><g fill="#78c2a4"><path d="m80.13 132.616c4.492 0 7.89 4.065 7.094 8.486l-7.846 43.564c-.693 3.846 3.931 6.34 6.765 3.65l56.591-53.72c1.339-1.271 3.116-1.98 4.963-1.98z"/><path d="m459.637 0h-65.107c19.212 0 34.787 15.574 34.787 34.787v63.042c0 19.212-15.574 34.787-34.786 34.787h-30.227c1.847 0 3.623.709 4.963 1.98l56.591 53.72c2.834 2.69 7.457.196 6.765-3.65l-7.846-43.564c-.796-4.421 2.602-8.486 7.094-8.486h27.766c19.212 0 34.787-15.575 34.787-34.787v-63.042c-.001-19.213-15.575-34.787-34.787-34.787z"/></g><g><g><g><g><path d="m57.761 498.488c-4.617-25.692 14.357-49.607 40.426-50.951 23.066-1.19 41.147-20.259 41.11-43.356l-.202-123.815c0-5.228-.413-11.335-1.347-17.489-1.391-9.123-3.228-14.741-4.595-19.097h-48.824c-35.422 0-64.138 28.716-64.138 64.138v193.597h38.114z" fill="#d5985c"/><g><path d="m211.883 365.328-13.277-27.871c-.788-1.654-1.208-3.459-1.23-5.291l-.253-20.389c0-25.623-8.877-49.314-23.732-67.997h-49.438c.237 1.805.652 3.603 1.264 5.368 3.889 11.218 6.005 23.251 6.005 35.746l.191 117.032c.036 21.832-17.055 39.856-38.858 40.981-24.641 1.271-42.576 23.875-38.212 48.16l1.878 10.448h60.439l-4.64-29.329c-1.571-9.929 6.107-18.911 16.16-18.904l37.868.026c11.857.018 21.48-9.589 21.481-21.446l.003-35.498c.001-7.057 5.663-13.025 12.719-12.919 9.405.141 15.67-9.64 11.632-18.117z" fill="#c38959"/></g><path d="m69.591 394.127v-15.679c0-8.354 3.867-16.239 10.472-21.354l26.925-20.848c10.048-7.78 15.93-19.773 15.93-32.482 0-13.153 6.189-24.853 15.805-32.372-.22-2.773-.539-5.637-.976-8.516-2.22-14.555-5.575-20.193-6.343-26.008h.006c-.425-3.238-.289-6.499.367-9.663l-3.208-2.678h-39.12c-56.568 0-98.834 52.004-87.27 107.378l18.011 86.247h25.376c13.269 0 24.025-10.756 24.025-24.025z" fill="#6b61b1"/><path d="m198.189 224.527h-69.62c-4.873 7.251-6.241 16.289-3.353 24.62 3.296 9.507 5.302 19.604 5.842 30.068 7.49-10.034 19.456-16.531 32.94-16.531h5.176c18.549 0 33.585-15.037 33.585-33.585.002-2.525-2.045-4.572-4.57-4.572z" fill="#5e54ac"/></g><path d="m58.581 478.915-43.929-4.229c-6.899-.664-12.87 4.76-12.87 11.691v13.878c0 6.486 5.258 11.745 11.745 11.745h56.044l3.25-4.917v-9.35c0-8.935-6.002-16.483-14.24-18.818z" fill="#e28086"/><g><path d="m124.059 485.218-71.215-6.855c9.494 1.393 16.728 9.556 16.728 19.37v14.267h53.362c6.486 0 11.745-5.258 11.745-11.745v-3.347c-.001-6.05-4.598-11.11-10.62-11.69z" fill="#dd636e"/></g></g></g><g><g><g><path d="m395.339 501.515h38.363v-65.641c0-11.783 1.214-23.535 3.623-35.069l7.736-37.043 6.653-31.856c7.001-33.547-5.751-67.338-31.907-88.126h-81.198c-14.856 18.684-23.732 42.374-23.732 67.998l-.253 20.389c-.023 1.832-.443 3.637-1.23 5.291l-13.277 27.871c-4.038 8.477 2.227 18.258 11.633 18.116 7.056-.107 12.718 5.862 12.718 12.919l.003 35.498c.001 11.857 9.623 21.464 21.481 21.446l37.868-.026c10.053-.007 17.73 8.975 16.16 18.904z" fill="#ffddce"/><path d="m427.671 243.779h-14.864c25.276 20.089 39.149 53.446 31.907 88.126l-14.389 68.899c-2.409 11.534-3.623 23.286-3.623 35.069v65.641h65.107v-193.597c0-35.422-28.715-64.138-64.138-64.138z" fill="#ffcbbe"/><path d="m442.351 376.74 2.71-12.978 6.653-31.856c7.001-33.547-5.751-67.338-31.907-88.126-15.082-11.987-34.223-19.252-55.364-19.252h-50.633c-2.525 0-4.572 2.047-4.572 4.572 0 18.549 15.037 33.585 33.585 33.585h5.177c22.688 0 41.081 18.392 41.081 41.081 0 12.709 5.882 24.701 15.93 32.482l26.925 20.848c6.154 4.763 9.926 11.931 10.415 19.644z" fill="#e49542"/></g><g><path d="m422.551 224.527h-65.107c56.568 0 98.834 52.004 87.27 107.378l-6.653 31.856c2.801 4.322 4.348 9.41 4.348 14.687v15.68c0 13.268 10.756 24.024 24.024 24.024h25.376l18.011-86.247c11.565-55.374-30.701-107.378-87.269-107.378z" fill="#e27d47"/></g><path d="m429.292 481.238-41.35 3.98c-6.023.58-10.619 5.64-10.619 11.691v3.347c0 6.486 5.258 11.745 11.744 11.745h56.044l.833-2.656v-10.406c-.001-9.527-7.462-17.137-16.652-17.701z" fill="#b1e4f9"/><path d="m497.348 474.686-71 6.835c10.114-.675 18.763 7.331 18.763 17.541v12.938h53.362c6.486 0 11.745-5.258 11.745-11.745v-13.879c0-6.93-5.971-12.354-12.87-11.69z" fill="#90d8f9"/></g></g></g><g><g><path d="m435.409 52.507h-358.818c-4.267 0-7.726-3.459-7.726-7.726s3.459-7.726 7.726-7.726h358.819c4.268 0 7.726 3.459 7.726 7.726s-3.459 7.726-7.727 7.726z" fill="#f0f7ff"/></g><g><path d="m256 91.372h-179.409c-4.267 0-7.726-3.459-7.726-7.726 0-4.268 3.459-7.726 7.726-7.726h179.409c4.268 0 7.726 3.459 7.726 7.726s-3.458 7.726-7.726 7.726z" fill="#f0f7ff"/></g></g></g></g></svg>