<svg height="512" viewBox="0 0 512 512" width="512" xmlns="http://www.w3.org/2000/svg"><g id="flat"><g fill="#eaeae8"><path d="m216 424h112a0 0 0 0 1 0 0v64a0 0 0 0 1 0 0h-112a32 32 0 0 1 -32-32 32 32 0 0 1 32-32z"/><path d="m488 488h-112a32 32 0 0 1 -32-32 32 32 0 0 1 32-32h112"/><path d="m232 360h112a0 0 0 0 1 0 0v64a0 0 0 0 1 0 0h-112a32 32 0 0 1 -32-32 32 32 0 0 1 32-32z" transform="matrix(-1 0 0 -1 544 784)"/><path d="m216 296h120a0 0 0 0 1 0 0v64a0 0 0 0 1 0 0h-120a32 32 0 0 1 -32-32 32 32 0 0 1 32-32z" transform="matrix(-1 0 0 -1 520 656)"/><path d="m56 424h112a0 0 0 0 1 0 0v64a0 0 0 0 1 0 0h-112a32 32 0 0 1 -32-32 32 32 0 0 1 32-32z"/><path d="m56 360h120a0 0 0 0 1 0 0v64a0 0 0 0 1 0 0h-120a32 32 0 0 1 -32-32 32 32 0 0 1 32-32z" transform="matrix(-1 0 0 -1 200 784)"/></g><path d="m332.056 168.424-38.851 47.576h-80l-35.887-48.564a88.47 88.47 0 0 1 -17.318-52.576v-2.392a88.467 88.467 0 0 1 88.468-88.468h15.064a88.467 88.467 0 0 1 88.468 88.468 88.473 88.473 0 0 1 -19.944 55.956z" fill="#fbb540"/><path d="m280 224a8 8 0 0 1 -8-8v-80a8 8 0 0 1 6.431-7.845l25.864-5.173a9.584 9.584 0 0 0 -1.879-18.982h-14.416a8 8 0 0 1 -5.657-2.343l-9.1-9.1-10.587 15.881a8 8 0 0 1 -13.312 0l-10.587-15.881-9.1 9.1a8 8 0 0 1 -5.657 2.343h-14.416a9.584 9.584 0 0 0 -1.879 18.982l25.864 5.173a8 8 0 0 1 6.431 7.845v80a8 8 0 0 1 -16 0v-73.441l-19.433-3.887a25.584 25.584 0 0 1 5.017-50.672h11.1l13.656-13.657a8 8 0 0 1 12.313 1.219l9.347 14.016 9.344-14.016a8 8 0 0 1 12.313-1.219l13.656 13.657h11.1a25.585 25.585 0 0 1 5.018 50.672l-19.431 3.887v73.441a8 8 0 0 1 -8 8z" fill="#d18d28"/><path d="m213 216h80a0 0 0 0 1 0 0v40a40 40 0 0 1 -40 40 40 40 0 0 1 -40-40v-40a0 0 0 0 1 0 0z" fill="#eaeae8"/><path d="m237 264a8 8 0 0 1 -8 8h-12.66a39.714 39.714 0 0 1 -3.34-16h16a8 8 0 0 1 8 8z" fill="#eaeae8"/><path d="m245 240a8 8 0 0 1 -8 8h-24v-16h24a8 8 0 0 1 8 8z" fill="#eaeae8"/><path d="m293 256a39.714 39.714 0 0 1 -3.34 16h-28.66a8 8 0 0 1 0-16z" fill="#eaeae8"/><path d="m293 232v16h-24a8 8 0 0 1 0-16z" fill="#eaeae8"/><path d="m328 496h-112a40 40 0 0 1 0-80h112a8 8 0 0 1 0 16h-112a24 24 0 0 0 0 48h112a8 8 0 0 1 0 16z" fill="#cf5252"/><path d="m328 464h-112a8 8 0 0 1 0-16h112z" fill="#cbcbcb"/><path d="m488 496h-112a40 40 0 0 1 0-80h112a8 8 0 0 1 0 16h-112a24 24 0 0 0 0 48h112a8 8 0 0 1 0 16z" fill="#5f967c"/><path d="m488 464h-112a8 8 0 0 1 0-16h112z" fill="#cbcbcb"/><path d="m312 432h-112a8 8 0 0 1 0-16h112a24 24 0 0 0 0-48h-112a8 8 0 0 1 0-16h112a40 40 0 0 1 0 80z" fill="#5f967c"/><path d="m200 384h112a8 8 0 0 1 0 16h-112z" fill="#cbcbcb"/><path d="m304 368h-120a8 8 0 0 1 0-16h120a24 24 0 0 0 0-48h-120a8 8 0 0 1 0-16h120a40 40 0 0 1 0 80z" fill="#0296e5"/><path d="m184 320h120a8 8 0 0 1 0 16h-120z" fill="#cbcbcb"/><path d="m56 360h120a0 0 0 0 1 0 0v64a0 0 0 0 1 0 0h-120a32 32 0 0 1 -32-32 32 32 0 0 1 32-32z" fill="#eaeae8" transform="matrix(-1 0 0 -1 200 784)"/><path d="m144 432h-120a8 8 0 0 1 0-16h120a24 24 0 0 0 0-48h-120a8 8 0 0 1 0-16h120a40 40 0 0 1 0 80z" fill="#cf5252"/><path d="m24 384h120a8 8 0 0 1 0 16h-120z" fill="#cbcbcb"/><path d="m168 496h-112a40 40 0 0 1 0-80h112a8 8 0 0 1 0 16h-112a24 24 0 0 0 0 48h112a8 8 0 0 1 0 16z" fill="#0296e5"/><path d="m168 464h-112a8 8 0 0 1 0-16h112z" fill="#cbcbcb"/><path d="m245 240a8 8 0 0 1 -8 8h-24v-16h24a8 8 0 0 1 8 8z" fill="#cbcbcb"/><path d="m293 232v16h-24a8 8 0 0 1 0-16z" fill="#cbcbcb"/><path d="m128 120h-32a8 8 0 0 1 0-16h32a8 8 0 0 1 0 16z" fill="#f7ba61"/><path d="m127.993 72a7.96 7.96 0 0 1 -4.431-1.345l-24-16a8 8 0 0 1 8.876-13.312l24 16a8 8 0 0 1 -4.445 14.657z" fill="#f7ba61"/><path d="m104.007 184a8 8 0 0 1 -4.445-14.657l24-16a8 8 0 0 1 8.876 13.312l-24 16a7.968 7.968 0 0 1 -4.431 1.345z" fill="#f7ba61"/><path d="m416 120h-32a8 8 0 0 1 0-16h32a8 8 0 0 1 0 16z" fill="#f7ba61"/><path d="m384.007 72a8 8 0 0 1 -4.445-14.657l24-16a8 8 0 0 1 8.876 13.312l-24 16a7.968 7.968 0 0 1 -4.431 1.345z" fill="#f7ba61"/><path d="m407.993 184a7.96 7.96 0 0 1 -4.431-1.345l-24-16a8 8 0 1 1 8.876-13.312l24 16a8 8 0 0 1 -4.445 14.657z" fill="#f7ba61"/><path d="m237 264a8 8 0 0 1 -8 8h-12.66a39.714 39.714 0 0 1 -3.34-16h16a8 8 0 0 1 8 8z" fill="#cbcbcb"/><path d="m293 256a39.714 39.714 0 0 1 -3.34 16h-28.66a8 8 0 0 1 0-16z" fill="#cbcbcb"/></g></svg>