<?xml version="1.0" encoding="iso-8859-1"?>
<!-- Generator: Adobe Illustrator 19.0.0, SVG Export Plug-In . SVG Version: 6.00 Build 0)  -->
<svg version="1.1" id="Layer_1" xmlns="http://www.w3.org/2000/svg" xmlns:xlink="http://www.w3.org/1999/xlink" x="0px" y="0px"
	 viewBox="0 0 512 512" style="enable-background:new 0 0 512 512;" xml:space="preserve">
<rect x="229.04" y="371.78" style="fill:#A9F0F0;" width="53.909" height="83.16"/>
<g>
	<rect x="256" y="371.78" style="fill:#64DDE0;" width="26.953" height="83.16"/>
	<path style="fill:#64DDE0;" d="M256.002,387.282c-88.197,0-159.95-74.347-159.95-165.731v-15h58.066v30H126.84
		c7.172,67.809,62.362,120.731,129.162,120.731c66.798,0,121.986-52.923,129.158-120.731h-27.278v-30h58.066v15
		C415.948,312.936,344.196,387.282,256.002,387.282z"/>
</g>
<path style="fill:#00C2C7;" d="M357.882,206.551v30h27.278c-7.172,67.809-62.36,120.731-129.158,120.731v30
	c88.194,0,159.946-74.347,159.946-165.731v-15L357.882,206.551L357.882,206.551z"/>
<path style="fill:#808081;" d="M367.609,226.271c0,64.87-50.225,117.947-111.608,117.947c-61.389,0-111.611-53.077-111.611-117.947
	V117.945C144.391,53.075,194.613,0,256.002,0C317.384,0,367.61,53.075,367.61,117.945v108.326H367.609z"/>
<path style="fill:#666666;" d="M367.609,226.271c0,64.87-50.225,117.947-111.608,117.947c0-74.125,0-292.51,0-344.218
	c61.382,0,111.608,53.075,111.608,117.945V226.271z"/>
<g>
	<rect x="297.25" y="157.11" style="fill:#333333;" width="70.36" height="30"/>
	<path style="fill:#333333;" d="M297.254,118.555h70.355v-0.61c0-10.137-1.227-19.986-3.531-29.39h-66.825v30H297.254z"/>
	<path style="fill:#333333;" d="M297.254,225.663v30h66.824c2.304-9.404,3.531-19.254,3.531-29.392v-0.608H297.254z"/>
</g>
<g>
	<path style="fill:#4D4D4D;" d="M144.391,117.945v0.61h70.355v-30h-66.825C145.617,97.958,144.391,107.808,144.391,117.945z"/>
	<rect x="144.39" y="157.11" style="fill:#4D4D4D;" width="70.36" height="30"/>
	<path style="fill:#4D4D4D;" d="M214.746,225.663h-70.355v0.608c0,10.138,1.227,19.988,3.531,29.392h66.825v-30H214.746z"/>
</g>
<path style="fill:#64DDE0;" d="M352.063,512H159.937v-68.996h192.127V512H352.063z"/>
<path style="fill:#00C2C7;" d="M352.063,512H256v-68.996h96.064V512H352.063z"/>
<g>
</g>
<g>
</g>
<g>
</g>
<g>
</g>
<g>
</g>
<g>
</g>
<g>
</g>
<g>
</g>
<g>
</g>
<g>
</g>
<g>
</g>
<g>
</g>
<g>
</g>
<g>
</g>
<g>
</g>
</svg>
