<svg id="Capa_1" enable-background="new 0 0 512 512" height="512" viewBox="0 0 512 512" width="512" xmlns="http://www.w3.org/2000/svg"><g><g id="Thunder_11_"><g><path d="m356.605 478.803-21.21-21.211 45.293-45.279-60-30 74.707-74.721 21.21 21.211-45.292 45.278 60 30z" fill="#fb3"/></g><g><path d="m311.201 403.997-55.201 55.201-19.501 19.499-20.998-20.999 40.499-40.501 4.799-4.799-4.799-2.401-55.201-27.599 55.201-55.201 19.501-19.499 20.998 20.999-40.499 40.501-4.799 4.799 4.799 2.4z" fill="#ffe14d"/></g><path d="m296.499 328.697-40.499 40.501v-42.001l19.501-19.499z" fill="#fb3"/><g><path d="m311.201 403.997-55.201 55.201v-42.001l4.799-4.799-4.799-2.401v-33.6z" fill="#fb3"/></g><g><path d="m116.605 478.803-21.21-21.211 45.293-45.279-60-30 74.707-74.721 21.21 21.211-45.292 45.278 60 30z" fill="#ffe14d"/></g></g><g id="Cloud_14_"><g><path d="m434.801 154.397c-6.601-43.2-43.801-76.2-88.801-76.2-16.8 0-32.999 4.799-47.1 13.5-10.8-17.701-25.499-32.401-42.9-42.599-17.701-10.201-38.401-15.901-60-15.901-66.301 0-120 53.699-120 120v1.199c-42.599 7.202-76 44.401-76 88.801 0 49.501 41.499 90 91 90h330c49.501 0 91-40.499 91-90 0-45-33.999-82.199-77.199-88.8z" fill="#4a696f"/></g></g><path d="m512 243.197c0 49.501-41.499 90-91 90h-165v-284.099c17.401 10.199 32.1 24.899 42.9 42.599 14.101-8.701 30.3-13.5 47.1-13.5 45 0 82.2 32.999 88.801 76.199 43.2 6.602 77.199 43.801 77.199 88.801z" fill="#384949"/></g></svg>