<?xml version="1.0" encoding="iso-8859-1"?>
<!-- Generator: Adobe Illustrator 19.0.0, SVG Export Plug-In . SVG Version: 6.00 Build 0)  -->
<svg version="1.1" id="Capa_1" xmlns="http://www.w3.org/2000/svg" xmlns:xlink="http://www.w3.org/1999/xlink" x="0px" y="0px"
	 viewBox="0 0 512 512" style="enable-background:new 0 0 512 512;" xml:space="preserve">
<polygon style="fill:#FBDA35;" points="269.915,185.994 242.085,174.791 268.933,108.097 198.651,108.097 242.085,0.199 
	269.915,11.402 243.067,78.097 313.349,78.097 "/>
<path style="fill:#FFD9A6;" d="M141.196,293.929l-60.221-60.221c-13.595-13.595-14.603-35.746-1.499-49.816
	c13.757-14.771,36.893-15.082,51.044-0.931l60.004,60.004c17.118,17.118,26.735,40.336,26.735,64.544v127.816h-111.07V380.77
	l-79.454-79.454C9.617,284.199,0,260.982,0,236.773V87.9c0-20.012,16.579-36.153,36.751-35.435
	c19.215,0.683,34.165,17.058,34.165,36.285v111.236"/>
<path style="fill:#FFC799;" d="M36.751,52.464v191.419l77.63,77.744l26.815-27.699l-60.221-60.221
	c-8.937-8.937-12.433-21.572-10.058-33.177V88.749C70.917,69.523,55.966,53.148,36.751,52.464"/>
<path style="fill:#7BCEFC;" d="M243.465,511.801H71.667v-97.192h171.798V511.801z"/>
<circle style="fill:#FFFFFF;" cx="111.71" cy="463.2" r="15"/>
<path style="fill:#FFD9A6;" d="M370.804,293.929l60.221-60.221c13.595-13.595,14.603-35.746,1.499-49.816
	c-13.757-14.771-36.893-15.082-51.044-0.931l-60.004,60.004c-17.118,17.118-26.735,40.336-26.735,64.544v127.816h111.07V380.77
	l79.454-79.454C502.383,284.199,512,260.982,512,236.773V87.9c0-20.012-16.579-36.153-36.751-35.435
	c-19.215,0.683-34.165,17.058-34.165,36.285v111.236"/>
<path style="fill:#FFC799;" d="M475.248,52.464v191.419l-77.63,77.744l-26.815-27.699l60.221-60.221
	c8.937-8.937,12.433-21.572,10.058-33.177V88.749C441.083,69.523,456.034,53.148,475.248,52.464"/>
<path style="fill:#7BCEFC;" d="M268.535,414.608h171.798V511.8H268.535V414.608z"/>
<circle style="fill:#FFFFFF;" cx="400.29" cy="463.2" r="15"/>
<g>
</g>
<g>
</g>
<g>
</g>
<g>
</g>
<g>
</g>
<g>
</g>
<g>
</g>
<g>
</g>
<g>
</g>
<g>
</g>
<g>
</g>
<g>
</g>
<g>
</g>
<g>
</g>
<g>
</g>
</svg>
