<?xml version="1.0" encoding="iso-8859-1"?>
<!-- Generator: Adobe Illustrator 19.0.0, SVG Export Plug-In . SVG Version: 6.00 Build 0)  -->
<svg version="1.1" id="Capa_1" xmlns="http://www.w3.org/2000/svg" xmlns:xlink="http://www.w3.org/1999/xlink" x="0px" y="0px"
	 viewBox="0 0 512 512" style="enable-background:new 0 0 512 512;" xml:space="preserve">
<circle style="fill:#00E8F2;" cx="256" cy="256" r="256"/>
<path style="fill:#00B7BE;" d="M511.517,271.544l-77.689-77.689L256,58.958L78.173,193.855l24.469,32.257l25.948,26.513v118.553
	H95.334v37.489l94.749,94.749C211.117,509.005,233.207,512,256,512C392.164,512,503.479,405.689,511.517,271.544z"/>
<polygon style="fill:#FFFFFF;" points="383.409,374.829 128.588,374.829 128.588,203.114 255.999,106.463 383.409,203.114 "/>
<polygon style="fill:#9CFDFF;" points="383.409,203.11 383.409,374.83 255.999,374.83 255.999,106.46 "/>
<rect x="95.33" y="371.18" style="fill:#0088FF;" width="321.33" height="37.489"/>
<rect x="256" y="371.18" style="fill:#004EB1;" width="160.67" height="37.49"/>
<polygon style="fill:#E02424;" points="409.357,226.112 255.999,109.777 102.64,226.112 78.171,193.855 255.999,58.958 
	433.826,193.855 "/>
<polygon style="fill:#990011;" points="433.829,193.86 409.358,226.11 383.409,206.43 255.999,109.78 255.999,58.96 "/>
<path style="fill:#0088FF;" d="M256,181c-20.854,0-37.82,16.966-37.82,37.82v29.735h16.494V218.82
	c0-11.759,9.567-21.326,21.326-21.326s21.326,9.567,21.326,21.326v29.735h16.494V218.82C293.82,197.966,276.854,181,256,181z"/>
<path style="fill:#004EB1;" d="M293.82,218.82v29.73h-16.49v-29.73c0-11.76-9.57-21.33-21.33-21.33V181
	C276.85,181,293.82,197.97,293.82,218.82z"/>
<path style="fill:#FEC000;" d="M281.788,336h-51.577c-14.896,0-27.083-12.187-27.083-27.083v-62.214h105.743v62.214
	C308.871,323.813,296.684,336,281.788,336z"/>
<path style="fill:#FF9A00;" d="M308.87,246.7v62.22c0,14.89-12.19,27.08-27.08,27.08H256v-89.3L308.87,246.7L308.87,246.7z"/>
<path style="fill:#0088FF;" d="M270.667,280.914c0-8.1-6.566-14.667-14.667-14.667c-8.1,0-14.667,6.567-14.667,14.667
	c0,5.408,2.935,10.12,7.292,12.663v15.503c0,4.056,3.319,7.375,7.375,7.375s7.375-3.319,7.375-7.375v-15.503
	C267.731,291.034,270.667,286.322,270.667,280.914z"/>
<path style="fill:#004EB1;" d="M270.67,280.91c0,5.41-2.94,10.12-7.29,12.67v15.5c0,4.06-3.32,7.38-7.38,7.38v-50.21
	C264.1,266.25,270.67,272.81,270.67,280.91z"/>
<g>
</g>
<g>
</g>
<g>
</g>
<g>
</g>
<g>
</g>
<g>
</g>
<g>
</g>
<g>
</g>
<g>
</g>
<g>
</g>
<g>
</g>
<g>
</g>
<g>
</g>
<g>
</g>
<g>
</g>
</svg>
