<svg id="Capa_1" enable-background="new 0 0 512 512" height="512" viewBox="0 0 512 512" width="512" xmlns="http://www.w3.org/2000/svg"><g><path d="m512 256c0 141.385-114.615 256-256 256s-256-114.615-256-256 114.615-256 256-256 256 114.615 256 256z" fill="#86befb"/><path d="m56.478 387.359 100.76-335.183c1.59-5.289 7.166-8.288 12.456-6.698l335.183 100.76c5.289 1.59 8.288 7.166 6.698 12.456l-100.76 335.183c-1.59 5.289-7.166 8.288-12.456 6.698l-335.183-100.761c-5.289-1.59-8.288-7.166-6.698-12.455z" fill="#ff50b5"/><path d="m96.285 363.977 47.977-159.599c1.59-5.289 7.166-8.288 12.456-6.698l275.745 82.892c5.289 1.59 8.288 7.166 6.698 12.455l-47.977 159.599c-1.59 5.289-7.166 8.288-12.456 6.698l-275.745-82.892c-5.289-1.589-8.288-7.166-6.698-12.455z" fill="#ff2ea6"/><path d="m483.375 168.986-3.938 10.996c-.602 1.681-2.246 2.76-4.028 2.643l-54.067-3.553-18.093 50.518c-.38 1.06-.974 1.982-1.716 2.734-5.262 6.859-16.626 9.285-27.721 5.312-12.999-4.655-20.706-16.332-17.214-26.081s16.859-13.878 29.858-9.223c3.347 1.199 6.344 2.863 8.888 4.841l12.327-34.419c.059-.164.123-.324.192-.481 3.151-7.739 10.921-12.64 19.321-12.088l52.688 3.462c2.651.173 4.399 2.837 3.503 5.339z" fill="#ffc14f"/><path d="m483.375 168.986-3.058 8.537c0 .001-.001.002-.001.004 0 0-22.603 63.11-22.759 63.547-2.793 7.799-13.488 11.102-23.886 7.378-10.399-3.724-16.565-13.066-13.771-20.865 2.793-7.799 13.488-11.102 23.886-7.378 1.625.582 3.147 1.302 4.548 2.131l14.519-40.54-13.225-.869c-6.374-.419-10.576-6.822-8.422-12.837 1.447-4.042 5.399-6.634 9.683-6.352l28.982 1.904c2.652.174 4.4 2.838 3.504 5.34z" fill="#ffd993"/><path d="m385.567 234.057c0 129.843-105.259 235.102-235.102 235.102-14.215 0-28.135-1.262-41.655-3.679-65.812-46.327-108.81-122.882-108.81-209.48 0-123.735 87.785-226.966 204.472-250.812 103.812 24.403 181.095 117.61 181.095 228.869z" fill="#51489a"/><path d="m385.567 234.057c0 71.595-32.002 135.715-82.482 178.836-118.638-22.311-208.396-126.464-208.396-251.582 0-46.383 12.335-89.885 33.904-127.404 23.243-13.362 48.781-23.181 75.878-28.719 103.813 24.403 181.096 117.61 181.096 228.869z" fill="#5f55af"/><path d="m326.232 234.057c0 96.918-78.848 175.767-175.767 175.767-53.19 0-100.937-23.75-133.195-61.201-6.388-16.452-11.123-33.728-14.004-51.624 24.498 57.076 81.256 97.152 147.2 97.152 88.276 0 160.093-71.817 160.093-160.093s-71.818-160.094-160.094-160.094c-42.588 0-81.344 16.716-110.055 43.93 9.797-15.262 21.17-29.415 33.89-42.23 23.055-11.131 48.895-17.374 76.165-17.374 96.919 0 175.767 78.849 175.767 175.767zm-307.998 0c0-72.913 59.318-132.231 132.231-132.231s132.231 59.318 132.231 132.231-59.318 132.231-132.231 132.231-132.231-59.318-132.231-132.231zm15.674 0c0 64.27 52.288 116.558 116.558 116.558s116.558-52.288 116.558-116.558-52.288-116.558-116.558-116.558-116.558 52.288-116.558 116.558z" fill="#453d83"/><path d="m202.242 285.834c-28.596 28.596-74.958 28.596-103.554 0s-28.596-74.958 0-103.554 74.958-28.596 103.554 0 28.596 74.958 0 103.554z" fill="#ffc477"/><path d="m202.242 182.28c28.431 28.431 28.594 74.423.492 103.057l-103.549-103.548c28.634-28.103 74.627-27.939 103.057.491z" fill="#ffd993"/><path d="m133.367 274.002-23.571-24.061c-2.899-2.959-2.85-7.707.109-10.606l.481-.471c2.959-2.899 7.707-2.85 10.606.109l23.571 24.061c2.899 2.959 2.85 7.707-.109 10.606l-.481.471c-2.959 2.899-7.707 2.85-10.606-.109zm-13.035 9.059.481-.471c2.959-2.899 3.008-7.647.109-10.606l-9.365-9.559c-2.899-2.959-7.647-3.008-10.606-.109l-.481.471c-2.959 2.899-3.008 7.647-.109 10.606l9.365 9.559c2.899 2.959 7.647 3.007 10.606.109z" fill="#ff9f22"/><path d="m190.679 234.978-40.688-41.534c-2.899-2.959-2.85-7.707.109-10.606l.481-.471c2.959-2.899 7.707-2.85 10.606.109l40.688 41.534c2.899 2.959 2.85 7.707-.109 10.606l-.481.471c-2.959 2.899-7.708 2.85-10.606-.109z" fill="#ffe7c0"/><path d="m160.995 234.057c0 5.815-4.714 10.53-10.53 10.53-5.815 0-10.53-4.714-10.53-10.53s4.714-10.53 10.53-10.53 10.53 4.715 10.53 10.53z" fill="#453d83"/></g></svg>