<svg height="512" viewBox="0 0 128 128" width="512" xmlns="http://www.w3.org/2000/svg"><g><path d="m69.712 73.162 5.08-2.043-2.573-6.4-5.08 2.043a19.914 19.914 0 0 0 -6.113-6.24l2.148-5.038-6.343-2.7-2.149 5.037a19.924 19.924 0 0 0 -8.735-.091l-2.042-5.081-6.4 2.573 2.044 5.078a19.914 19.914 0 0 0 -6.24 6.113l-5.038-2.149-2.705 6.344 5.034 2.148a19.909 19.909 0 0 0 -.092 8.735l-5.08 2.043 2.573 6.4 5.08-2.043a19.914 19.914 0 0 0 6.119 6.239l-2.149 5.037 6.344 2.706 2.149-5.038a19.919 19.919 0 0 0 8.734.092l2.043 5.08 6.4-2.573-2.043-5.08a19.914 19.914 0 0 0 6.24-6.113l5.038 2.148 2.7-6.344-5.036-2.145a19.924 19.924 0 0 0 .092-8.738zm-15.069 15.438a12.145 12.145 0 1 1 6.737-15.8 12.146 12.146 0 0 1 -6.737 15.8z" fill="#1681fa"/><path d="m102.568 47.055v-5.068h-4.023a14.648 14.648 0 0 0 -2.457-5.93l2.845-2.845-3.583-3.584-2.85 2.846a14.628 14.628 0 0 0 -5.93-2.457v-4.024h-5.064v4.024a14.634 14.634 0 0 0 -5.93 2.457l-2.846-2.846-3.583 3.584 2.846 2.845a14.649 14.649 0 0 0 -2.458 5.93h-4.023v5.068h4.023a14.643 14.643 0 0 0 2.458 5.93l-2.846 2.846 3.583 3.584 2.846-2.846a14.648 14.648 0 0 0 5.93 2.457v4.024h5.068v-4.024a14.642 14.642 0 0 0 5.93-2.457l2.846 2.846 3.583-3.584-2.845-2.846a14.642 14.642 0 0 0 2.457-5.93zm-18.528 4.216a6.75 6.75 0 1 1 6.75-6.75 6.75 6.75 0 0 1 -6.75 6.75z" fill="#1eb2fc"/></g></svg>